<svg xmlns="http://www.w3.org/2000/svg" viewBox="0 0 24 24"><path d="M23.4 14.5v-4.1q0-3.6-2.8-5l-9-4.8v.1q2.5 1.5 2.6 5v4.9l-.1.2v.2l-.1.5-.1.4-.1.3v.1l-.2.3v.1l-.1.3v.2l-.2.2v.1l-.1.2-.2.3-.1.2-.1.2-.2.3-.1.2-.1.1-.4.5v.1l-.2.1-.3.3-.1.2-.1.1-.2.2-.1.1-.3.3-.3.2-.3.2v.1l-.3.2-.3.2h-.1l-.3.2-.2.1h-.2l-.3.2h-.2v.1H8l-.2.1h-.1l-.3.1-.7.2-.3.1H6v.1H4.1l-.4-.1-.3-.1h-.1l-.2-.1-.2-.1-.7-.4.4.5 9 4.7h.1l.3.2h.2l.1.1.3.1h.3l.2.1h.6l.2.1h1.2v-.1h.4l.3-.1.6-.2.4-.1.3-.1h.1l.2-.2h.1l.2-.1h.2l.2-.2.3-.2.4-.2 2 .9a1.7 1.7 0 0 0 2.5-1.6z" opacity=".5" /><path d="M11.6.6h-.2V.3H11V.2l-.3-.1h-.3l-.1-.1H8.2L8 .2l-.6.1-.6.2-.4.1-.4.2h-.2l-.2.1-.3.2-.3.1-.2.2-.4.2-.6.4-.3.3-.3.3h-.1l-.3.3V3l-.2.2-.1.1-.2.2-.1.1-.1.2-.1.1-.2.2v.1l-.2.2-.1.2-.2.2-.2.4v.2H1v.2l-.2.1v.4H.6l-.1.3v.2l-.2.3v.4H.2v.4L.1 8v.2l-.1.2v.8l-.1.4v4A6 6 0 0 0 1 17.3a5 5 0 0 0 1.6 1.4l9 4.7Q9.1 22 9 18.4v-5l.1-.3v-.3l.1-.4.1-.3.1-.4.2-.4v-.1l.1-.3v-.1l.3-.4v-.2l.1-.2.2-.3.1-.2.1-.1.1-.2.6-.8.1-.1.1-.2.2-.1.2-.3.5-.5.2-.2h.1l.6-.5.3-.2.4-.3.2-.1h.1l.6-.3.6-.3h.1l.4-.1.6-.2h.3v-.1h.6v-.1h2l.2.1h.1l.3.1.5.3h.1z" /></svg>
